<?xml version="1.0" standalone="no"?><!DOCTYPE svg PUBLIC "-//W3C//DTD SVG 1.1//EN" "http://www.w3.org/Graphics/SVG/1.1/DTD/svg11.dtd"><svg t="1633745331140" class="icon" viewBox="0 0 1024 1024" version="1.1" xmlns="http://www.w3.org/2000/svg" p-id="11994" xmlns:xlink="http://www.w3.org/1999/xlink" width="128" height="128"><defs><style type="text/css"></style></defs><path d="M12.800022 830.475402l158.846798 0 0-86.463234 28.710902 0 32.633235-225.184669c3.060709-21.109784 19.330254-38.708604 42.951231-38.708604l238.511185 0 0.067538-185.385221-29.947056 0 0-34.193777 29.954219 0 0.042979-114.01166 65.817008 0-0.011256 35.294854 43.561122 0 0 78.716806 358.102934 0 41.941228 34.193777L580.335872 294.733675l-0.078795 221.096561c0.084934 0.991584 0.127913 1.995447 0.127913 2.997264l0 223.690642c-9.942443-4.820796-21.109784-7.525394-32.907481-7.525394-19.24532 0-36.812417 7.195889-50.15326 19.054985l-314.902016 0 0 81.566714 293.76665 0c3.750417 10.659781 9.81453 20.230764 17.60496 28.087709L12.800022 863.702154c-7.030114 0-12.782118-5.752004-12.782118-12.778024l0-7.673773C0.017904 836.227406 5.769908 830.475402 12.800022 830.475402L12.800022 830.475402zM547.47751 743.620241c-36.960797 0-66.919109 29.960359-66.919109 66.919109s29.959336 66.930365 66.919109 66.930365c36.95875 0 66.924225-29.971615 66.924225-66.930365S584.43626 743.620241 547.47751 743.620241L547.47751 743.620241zM547.47751 784.190239c-14.552437 0-26.349111 11.797697-26.349111 26.350135 0 14.563694 11.797697 26.348088 26.349111 26.348088 14.557554 0 26.348088-11.785417 26.348088-26.348088C573.825598 795.987936 562.034041 784.190239 547.47751 784.190239L547.47751 784.190239zM216.475817 702.267415l204.230428-0.831948L420.706245 560.768727l-183.849238 0.831948L216.475817 702.267415z" p-id="11995" fill="#1296db"></path></svg>