<?xml version="1.0" standalone="no"?><!DOCTYPE svg PUBLIC "-//W3C//DTD SVG 1.1//EN" "http://www.w3.org/Graphics/SVG/1.1/DTD/svg11.dtd"><svg t="1634798431259" class="icon" viewBox="0 0 1024 1024" version="1.1" xmlns="http://www.w3.org/2000/svg" p-id="7421" xmlns:xlink="http://www.w3.org/1999/xlink" width="128" height="128"><defs><style type="text/css"></style></defs><path d="M423.606857 475.428571H144.018286A144.603429 144.603429 0 0 1 0 331.410286V144.018286A144.603429 144.603429 0 0 1 144.018286 0h187.392A144.603429 144.603429 0 0 1 475.428571 144.018286v279.588571c0 28.598857-23.222857 51.821714-51.821714 51.821714z m456.411429 0h-279.625143A51.821714 51.821714 0 0 1 548.571429 423.606857V144.018286A144.603429 144.603429 0 0 1 692.589714 0h187.392A144.603429 144.603429 0 0 1 1024 144.018286v187.392A144.603429 144.603429 0 0 1 879.981714 475.428571zM331.373714 1024H144.018286A144.603429 144.603429 0 0 1 0 879.981714v-187.392A144.603429 144.603429 0 0 1 144.018286 548.571429h279.588571c28.525714 0 51.675429 23.04 51.821714 51.565714v279.552A144.603429 144.603429 0 0 1 331.410286 1024z m548.571429 0h-187.392A144.566857 144.566857 0 0 1 548.571429 880.054857v-279.661714c0-28.635429 23.222857-51.821714 51.821714-51.821714h279.588571A144.566857 144.566857 0 0 1 1024 692.516571v187.245715A144.566857 144.566857 0 0 1 879.981714 1024z" fill="#00D6F8" p-id="7422"></path></svg>