<?xml version="1.0" standalone="no"?><!DOCTYPE svg PUBLIC "-//W3C//DTD SVG 1.1//EN" "http://www.w3.org/Graphics/SVG/1.1/DTD/svg11.dtd"><svg t="1634797939919" class="icon" viewBox="0 0 1024 1024" version="1.1" xmlns="http://www.w3.org/2000/svg" p-id="3617" xmlns:xlink="http://www.w3.org/1999/xlink" width="128" height="128"><defs><style type="text/css"></style></defs><path d="M947.956976 684.040639h-389.673849v-96.504593h203.244522l-12.355512-17.47318 78.738974-55.782579z" fill="#4B83F0" p-id="3618"></path><path d="M677.597897 900.517987l-120.118974-169.614133h389.746958v96.504593H744.054469l12.282403 17.40007z" fill="#4B83F0" p-id="3619"></path><path d="M632.854858 927.276078H177.821081a14.110141 14.110141 0 0 1-5.117668-12.209293v-328.99293a131.597172 131.597172 0 0 1 116.975264-141.46696h230.221942a121.581165 121.581165 0 0 1 110.322296 96.065936h99.136536a226.639574 226.639574 0 0 0-172.099857-188.695723 209.020175 209.020175 0 1 0-304.866782 0 232.342118 232.342118 0 0 0-176.193992 233.950528v328.99293a105.058409 105.058409 0 0 0 101.622261 109.079434h455.326216a105.058409 105.058409 0 0 0 100.964274-108.713886h-96.504593a16.742085 16.742085 0 0 1-4.75212 11.989964zM405.191751 96.605484a112.515582 112.515582 0 1 1-112.515583 112.515582A112.661801 112.661801 0 0 1 405.191751 96.605484z" fill="#4B83F0" p-id="3620"></path></svg>