<?xml version="1.0" standalone="no"?><!DOCTYPE svg PUBLIC "-//W3C//DTD SVG 1.1//EN" "http://www.w3.org/Graphics/SVG/1.1/DTD/svg11.dtd"><svg t="1627802949428" class="icon" viewBox="0 0 1024 1024" version="1.1" xmlns="http://www.w3.org/2000/svg" p-id="7947" xmlns:xlink="http://www.w3.org/1999/xlink" width="128" height="128"><defs><style type="text/css"></style></defs><path d="M508.111444 959.050885c-178.290283 0-322.821761-139.640085-322.821761-311.882639 0-115.889195 56.005436-232.965424 122.509973-331.796139 18.746932 92.527162 67.108286 158.888436 124.341688 158.888436 73.452772 0 132.937443-108.531638 132.937442-242.379822 0-64.816085-14.172763-123.379782-36.838949-166.798577C540.079466 75.478914 830.943438 334.262302 830.943438 647.168246c0 172.242555-144.521246 311.88264-322.831994 311.882639z m166.900908-447.511372c-2.865252 34.127194-51.226606 165.775273-171.352281 165.775273-50.50006 0-117.332054 11.614502-128.506535 82.887636-5.61794 35.754247 26.851501 124.362154 135.608266 124.362154 207.515849-0.071631 164.25055-373.025063 164.25055-373.025063z" p-id="7948" fill="#d81e06"></path><path d="M508.111444 959.050885c-178.290283 0-322.821761-139.640085-322.821761-311.882639 0-115.889195 56.005436-232.965424 122.509973-331.796139 18.746932 92.527162 67.108286 158.888436 124.341688 158.888436 73.452772 0 132.937443-108.531638 132.937442-242.379822 0-64.816085-14.172763-123.379782-36.838949-166.798577C540.079466 75.478914 830.943438 334.262302 830.943438 647.168246c0 172.242555-144.521246 311.88264-322.831994 311.882639z m166.900908-447.511372c-2.865252 34.127194-51.226606 165.775273-171.352281 165.775273-50.50006 0-117.332054 11.614502-128.506535 82.887636-5.61794 35.754247 26.851501 124.362154 135.608266 124.362154 207.515849-0.071631 164.25055-373.025063 164.25055-373.025063z" p-id="7949" fill="#d81e06"></path></svg>