<?xml version="1.0" standalone="no"?><!DOCTYPE svg PUBLIC "-//W3C//DTD SVG 1.1//EN" "http://www.w3.org/Graphics/SVG/1.1/DTD/svg11.dtd"><svg t="1634797806115" class="icon" viewBox="0 0 1024 1024" version="1.1" xmlns="http://www.w3.org/2000/svg" p-id="1895" xmlns:xlink="http://www.w3.org/1999/xlink" width="128" height="128"><defs><style type="text/css"></style></defs><path d="M651.326749 706.021555l-100.244052 85.530812V456.05816a40.151516 40.151516 0 0 0-80.249136 0v334.631893l-100.297947-85.476918a39.731137 39.731137 0 1 0-50.660973 61.224324l161.683955 139.317675a40.474883 40.474883 0 0 0 29.534269 11.641245 43.439089 43.439089 0 0 0 29.588164-11.641245l164.648161-139.317675a38.049624 38.049624 0 0 0 3.179785-55.996543 42.361196 42.361196 0 0 0-57.020542-4.203783zM516.212857 187.932267c32.714054 0 61.224324-23.228595 61.224325-64.404108 0-33.791947-25.330486-64.673582-61.224325-64.673582-32.714054 0-61.224324 30.612162-61.224324 64.673582s28.510271 64.404109 61.224324 64.404108zM292.442263 118.246483a30.342689 30.342689 0 0 1 29.534269-30.612162h21.126704a29.749848 29.749848 0 0 0 29.318691-30.612163A56.804963 56.804963 0 0 1 429.658047 0.001617h169.121417a57.451699 57.451699 0 0 1 57.020541 57.020541 30.342689 30.342689 0 0 0 29.210902 30.612163h17.946919c13.743136 0 28.510271 11.58735 30.612162 31.63616V210.190759a30.342689 30.342689 0 0 1-29.534269 30.612162H321.976532A29.695953 29.695953 0 0 1 292.442263 210.190759zM925.812211 194.022363v749.728501c0 37.726256-39.073623 80.249136-75.991459 80.249136H174.197397C131.081676 1024 98.152044 977.54281 98.152044 943.750864V198.441725C98.152044 156.296107 119.117063 125.63005 166.81383 129.833833h18.970918a29.803742 29.803742 0 0 1 29.588163 30.612162v134.089894a30.342689 30.342689 0 0 0 29.534269 30.612162l538.407571-4.203783a29.749848 29.749848 0 0 0 29.53427-30.612162V156.296107c0-17.946919 13.743136-30.612162 32.767948-30.612162h17.946919c39.019728-0.053895 63.326216 34.76205 62.248323 68.338418z" fill="#1296db" p-id="1896"></path></svg>