<?xml version="1.0" standalone="no"?><!DOCTYPE svg PUBLIC "-//W3C//DTD SVG 1.1//EN" "http://www.w3.org/Graphics/SVG/1.1/DTD/svg11.dtd"><svg t="1624862850957" class="icon" viewBox="0 0 1024 1024" version="1.1" xmlns="http://www.w3.org/2000/svg" p-id="10999" width="128" height="128" xmlns:xlink="http://www.w3.org/1999/xlink"><defs><style type="text/css"></style></defs><path d="M327.687065 718.820445V122.87529a20.479215 20.479215 0 1 0-40.95843 0v595.945155a102.396075 102.396075 0 1 0 40.95843 0z m102.396075-63.186911V122.87529a122.87529 122.87529 0 0 0-245.750579 0v532.758244a204.365499 204.365499 0 0 0-79.911604 192.675281c12.628849 91.089842 87.463314 163.91905 178.851811 174.286652A204.834815 204.834815 0 0 0 512 819.168599a204.280169 204.280169 0 0 0-81.91686-163.535065zM307.20785 983.002318a163.83372 163.83372 0 0 1-163.833719-163.833719c0-60.584344 32.980069-113.403653 81.91686-141.733234V122.87529a81.91686 81.91686 0 0 1 163.833719 0V677.435365a163.620395 163.620395 0 0 1 81.91686 141.733234 163.83372 163.83372 0 0 1-163.83372 163.833719z m409.5843-634.855664s72.018573 81.191554 40.95843 143.354505c-79.783608-63.656227-132.389592-42.963686-184.312935-327.667439 0 0-61.437645 38.185203-61.437645 61.437645v368.625869c0 25.812344 41.854396 46.760874 61.437645 81.91686 19.583249 35.155986 20.479215 122.87529 20.479215 122.87529s49.747426-88.999255 20.479215-184.312935c52.520653 50.942047 136.27211 121.424679 20.479215 307.188224 49.363441 8.021026 286.709009-16.767357 286.709009-286.709009s-204.79215-286.709009-204.792149-286.70901z" p-id="11000" fill="#1296db"></path></svg>