<?xml version="1.0" standalone="no"?><!DOCTYPE svg PUBLIC "-//W3C//DTD SVG 1.1//EN" "http://www.w3.org/Graphics/SVG/1.1/DTD/svg11.dtd"><svg t="1627803091847" class="icon" viewBox="0 0 1024 1024" version="1.1" xmlns="http://www.w3.org/2000/svg" p-id="11938" xmlns:xlink="http://www.w3.org/1999/xlink" width="128" height="128"><defs><style type="text/css"></style></defs><path d="M814.32381 302.031238a301.348571 301.348571 0 0 0-110.494477-233.569524l-37.059047 176.176762-44.665905-9.362286 40.96-194.901333A300.470857 300.470857 0 0 0 512.341333 0a300.470857 300.470857 0 0 0-154.233904 42.374095l40.521142 192.902095-44.665904 9.362286-36.425143-173.348571a301.251048 301.251048 0 0 0-107.178667 230.741333H154.819048v73.97181h714.995809V302.031238H814.32381z m-139.946667 340.260572c-67.779048 102.838857-120.978286 264.143238-120.978286 264.143238l-11.702857-220.16H482.889143l-11.702857 220.16s-53.150476-161.304381-121.027048-264.143238C55.393524 679.448381 0 836.217905 0 1024h1024.633905c0-187.782095-55.393524-344.551619-350.256762-381.70819zM731.91619 327.68c3.413333 15.60381 5.36381 31.695238 5.36381 48.274286a225.182476 225.182476 0 0 1-224.938667 224.938666 225.182476 225.182476 0 0 1-224.889904-224.889904c0-16.579048 1.950476-32.719238 5.363809-48.323048h-63.878095a285.842286 285.842286 0 0 0 79.969524 251.757714 285.842286 285.842286 0 0 0 203.434666 84.260572 285.842286 285.842286 0 0 0 203.434667-84.260572 285.842286 285.842286 0 0 0 79.969524-251.757714h-63.878095z m-282.819047 354.499048l17.603047 88.405333h91.282286l17.554286-88.454095H449.097143z" fill="#00B16A" p-id="11939"></path></svg>