<?xml version="1.0" standalone="no"?><!DOCTYPE svg PUBLIC "-//W3C//DTD SVG 1.1//EN" "http://www.w3.org/Graphics/SVG/1.1/DTD/svg11.dtd"><svg t="1627803244019" class="icon" viewBox="0 0 1024 1024" version="1.1" xmlns="http://www.w3.org/2000/svg" p-id="1340" xmlns:xlink="http://www.w3.org/1999/xlink" width="128" height="128"><defs><style type="text/css"></style></defs><path d="M733.098667 810.666667H640V298.666667h170.666667l170.666666 271.061333V810.666667h-93.098666" p-id="1341"></path><path d="M554.666667 725.333333h128v42.666667h-128z" p-id="1342"></path><path d="M597.333333 597.333333v213.333334l-76.8 0.042666c0.981333-4.949333 1.493333-10.026667 1.493334-15.274666 0-42.069333-33.706667-76.202667-75.264-76.202667-41.6 0-75.306667 34.133333-75.306667 76.202667 0 5.248 0.512 10.325333 1.493333 15.274666h-60.586666c1.024-4.949333 1.536-10.026667 1.536-15.274666 0-42.069333-33.706667-76.202667-75.264-76.202667-41.6 0-75.306667 34.133333-75.306667 76.202667 0 5.248 0.512 10.325333 1.536 15.274666L85.333333 810.666667v-213.333334h512z" p-id="1343"></path><path d="M789.333333 789.333333m-64 0a64 64 0 1 0 128 0 64 64 0 1 0-128 0Z" p-id="1344"></path><path d="M150.613333 212.352l287.061334 31.146667L594.346667 365.226667l-72.96 211.797333-198.314667-0.64L77.653333 424.149333z" p-id="1345"></path><path d="M412.117333 245.632l41.6 14.293333-105.045333 305.066667-41.6-14.293333z" p-id="1346"></path></svg>