<?xml version="1.0" standalone="no"?><!DOCTYPE svg PUBLIC "-//W3C//DTD SVG 1.1//EN" "http://www.w3.org/Graphics/SVG/1.1/DTD/svg11.dtd"><svg t="1634798592284" class="icon" viewBox="0 0 1024 1024" version="1.1" xmlns="http://www.w3.org/2000/svg" p-id="8493" xmlns:xlink="http://www.w3.org/1999/xlink" width="128" height="128"><defs><style type="text/css"></style></defs><path d="M513 130C301.584 130 130 301.584 130 513S301.584 896 513 896 896 724.416 896 513 724.416 130 513 130m114.626 538a38.318 38.318 0 0 1-27.14-11.264l-115.22-115.2A38.244 38.244 0 0 1 474 514.4v-192c0-21.208 17.196-38.4 38.406-38.4 21.212 0 38.408 17.192 38.408 38.4v176.128l103.952 103.936A38.396 38.396 0 0 1 627.626 668" p-id="8494"></path></svg>